<svg width="57" height="56" viewBox="0 0 57 56" fill="none" xmlns="http://www.w3.org/2000/svg">
<rect width="56.262" height="56" rx="28" fill="white"/>
<path d="M28.1247 27.6049C26.4215 27.6049 25.0289 27.064 23.947 25.9821C22.865 24.9002 22.3241 23.5076 22.3241 21.8043C22.3241 20.101 22.865 18.7078 23.947 17.6247C25.0289 16.5416 26.4215 16 28.1247 16C29.828 16 31.2227 16.5416 32.3088 17.6247C33.3949 18.7078 33.9379 20.101 33.9379 21.8043C33.9379 23.5076 33.3949 24.9002 32.3088 25.9821C31.2227 27.064 29.828 27.6049 28.1247 27.6049ZM37.7186 40H18.5345C17.8314 40 17.2332 39.7518 16.7399 39.2554C16.2466 38.759 16 38.1623 16 37.4655V36.263C16 35.2832 16.2469 34.4401 16.7408 33.7336C17.2347 33.0272 17.8725 32.4906 18.6542 32.124C20.3277 31.3741 21.9358 30.8116 23.4785 30.4366C25.0213 30.0617 26.5698 29.8742 28.1242 29.8742C29.6898 29.8742 31.2373 30.0679 32.7665 30.4552C34.2958 30.8426 35.8932 31.4013 37.5588 32.1312C38.3742 32.4932 39.0286 33.0263 39.522 33.7306C40.0153 34.4349 40.262 35.279 40.262 36.263V37.4655C40.262 38.1623 40.0145 38.759 39.5194 39.2554C39.0244 39.7518 38.4241 40 37.7186 40ZM18.5345 37.4655H37.7186V36.2986C37.7186 35.9056 37.6008 35.5309 37.3652 35.1744C37.1296 34.8179 36.8382 34.5538 36.491 34.3819C34.9275 33.6309 33.4959 33.1158 32.1964 32.8365C30.8968 32.5572 29.5387 32.4176 28.1221 32.4176C26.7174 32.4176 25.3498 32.5572 24.0195 32.8365C22.6892 33.1158 21.2589 33.6304 19.7287 34.3805C19.379 34.5525 19.0925 34.8168 18.8693 35.1735C18.6461 35.5302 18.5345 35.9052 18.5345 36.2986V37.4655ZM28.1247 25.0705C29.0694 25.0705 29.8506 24.7621 30.4682 24.1455C31.0857 23.5288 31.3945 22.7479 31.3945 21.8028C31.3945 20.8552 31.0863 20.0737 30.4699 19.458C29.8536 18.8423 29.0731 18.5345 28.1284 18.5345C27.1837 18.5345 26.4025 18.8425 25.7849 19.4584C25.1673 20.0743 24.8586 20.8543 24.8586 21.7984C24.8586 22.7449 25.1667 23.5269 25.7831 24.1443C26.3995 24.7618 27.18 25.0705 28.1247 25.0705Z" fill="#474785"/>
</svg>
